<svg viewBox="0 0 276 280" xmlns="http://www.w3.org/2000/svg">
  <rect x="36" y="0" width="240" height="280" rx="12" fill="#0ea5e9"/>
  <rect x="36" y="0" width="50" height="280" rx="8" fill="#0284c7"/>
  <rect x="104" y="30" width="148" height="8" rx="4" fill="#bae6fd"/>
  <rect x="104" y="52" width="116" height="8" rx="4" fill="#bae6fd"/>
  <rect x="104" y="74" width="138" height="8" rx="4" fill="#bae6fd"/>
  <rect x="104" y="96" width="100" height="8" rx="4" fill="#bae6fd"/>
  <rect x="104" y="118" width="148" height="8" rx="4" fill="#bae6fd"/>
  <rect x="104" y="140" width="124" height="8" rx="4" fill="#bae6fd"/>
  <rect x="104" y="162" width="110" height="8" rx="4" fill="#bae6fd"/>
  <rect x="104" y="184" width="140" height="8" rx="4" fill="#bae6fd"/>
  <rect x="104" y="206" width="96" height="8" rx="4" fill="#bae6fd"/>
  <path d="M61 70 Q30 70 30 95 Q30 120 61 120" fill="none" stroke="#e2e8f0" stroke-width="7" stroke-linecap="round"/>
  <line x1="61" y1="70" x2="61" y2="120" stroke="#bae6fd" stroke-width="7" stroke-linecap="round"/>
  <path d="M61 140 Q30 140 30 165 Q30 190 61 190" fill="none" stroke="#e2e8f0" stroke-width="7" stroke-linecap="round"/>
  <line x1="61" y1="140" x2="61" y2="190" stroke="#bae6fd" stroke-width="7" stroke-linecap="round"/>
  <path d="M61 210 Q30 210 30 235 Q30 260 61 260" fill="none" stroke="#e2e8f0" stroke-width="7" stroke-linecap="round"/>
  <line x1="61" y1="210" x2="61" y2="260" stroke="#bae6fd" stroke-width="7" stroke-linecap="round"/>
</svg>
